HIERARCHY
ROOT hip
{
  OFFSET 0 0 0
  CHANNELS 6 Xposition Yposition Zposition Zrotation Yrotation Xrotation
  JOINT abdomen
  {
    OFFSET 0 20.6881 -0.73152
    CHANNELS 3 Zrotation Xrotation Yrotation
    JOINT chest
    {
      OFFSET 0 11.7043 -0.48768
      CHANNELS 3 Zrotation Xrotation Yrotation
      JOINT neck
      {
        OFFSET 0 22.1894 -2.19456
        CHANNELS 3 Zrotation Xrotation Yrotation
        JOINT head
        {
          OFFSET -0.24384 7.07133 1.2192
          CHANNELS 3 Zrotation Xrotation Yrotation
          JOINT leftEye
          {
            OFFSET 4.14528 8.04674 8.04672
            CHANNELS 3 Zrotation Xrotation Yrotation
            End Site
            {
              OFFSET 1 0 0
            }
          }
          JOINT rightEye
          {
            OFFSET -3.6576 8.04674 8.04672
            CHANNELS 3 Zrotation Xrotation Yrotation
            End Site
            {
              OFFSET 1 0 0
            }
          }
        }
      }
      JOINT rCollar
      {
        OFFSET -2.68224 19.2634 -4.8768
        CHANNELS 3 Zrotation Xrotation Yrotation
        JOINT rShldr
        {
          OFFSET -8.77824 -1.95073 1.46304
          CHANNELS 3 Zrotation Xrotation Yrotation
          JOINT rForeArm
          {
            OFFSET -28.1742 -1.7115 0.48768
            CHANNELS 3 Zrotation Xrotation Yrotation
            JOINT rHand
            {
              OFFSET -22.5879 0.773209 7.07136
              CHANNELS 3 Zrotation Xrotation Yrotation
              JOINT rThumb1
              {
                OFFSET -1.2192 -0.487915 3.41376
                CHANNELS 3 Zrotation Xrotation Yrotation
                JOINT rThumb2
                {
                  OFFSET -3.37035 -0.52449 3.41376
                  CHANNELS 3 Zrotation Xrotation Yrotation
                  End Site
                  {
                    OFFSET -1.78271 -1.18214 1.43049
                  }
                }
              }
              JOINT rIndex1
              {
                OFFSET -7.75947 0.938293 5.60832
                CHANNELS 3 Zrotation Xrotation Yrotation
                JOINT rIndex2
                {
                  OFFSET -2.54057 -0.884171 1.56538
                  CHANNELS 3 Zrotation Xrotation Yrotation
                  End Site
                  {
                    OFFSET -1.62519 -0.234802 1.16502
                  }
                }
              }
              JOINT rMid1
              {
                OFFSET -8.24714 1.18213 3.41376
                CHANNELS 3 Zrotation Xrotation Yrotation
                JOINT rMid2
                {
                  OFFSET -3.10165 -0.590103 1.0647
                  CHANNELS 3 Zrotation Xrotation Yrotation
                  End Site
                  {
                    OFFSET -2.48547 -0.328903 0.83742
                  }
                }
              }
              JOINT rRing1
              {
                OFFSET -8.82822 0.546677 1.51678
                CHANNELS 3 Zrotation Xrotation Yrotation
                JOINT rRing2
                {
                  OFFSET -2.60934 -0.819778 -0.0198488
                  CHANNELS 3 Zrotation Xrotation Yrotation
                  End Site
                  {
                    OFFSET -2.33842 -0.294052 0.168128
                  }
                }
              }
              JOINT rPinky1
              {
                OFFSET -8.27202 -0.0477905 -0.4584
                CHANNELS 3 Zrotation Xrotation Yrotation
                JOINT rPinky2
                {
                  OFFSET -1.82734 -0.647385 -0.700984
                  CHANNELS 3 Zrotation Xrotation Yrotation
                  End Site
                  {
                    OFFSET -1.69225 -0.51767 -0.607171
                  }
                }
              }
            }
          }
        }
      }
      JOINT lCollar
      {
        OFFSET 2.68224 19.2634 -4.8768
        CHANNELS 3 Zrotation Xrotation Yrotation
        JOINT lShldr
        {
          OFFSET 8.77824 -1.95073 1.46304
          CHANNELS 3 Zrotation Xrotation Yrotation
          JOINT lForeArm
          {
            OFFSET 28.1742 -1.7115 0.48768
            CHANNELS 3 Zrotation Xrotation Yrotation
            JOINT lHand
            {
              OFFSET 22.5879 0.773209 7.07136
              CHANNELS 3 Zrotation Xrotation Yrotation
              JOINT lThumb1
              {
                OFFSET 1.2192 -0.487915 3.41376
                CHANNELS 3 Zrotation Xrotation Yrotation
                JOINT lThumb2
                {
                  OFFSET 3.37035 -0.52449 3.41376
                  CHANNELS 3 Zrotation Xrotation Yrotation
                  End Site
                  {
                    OFFSET 1.78271 -1.18214 1.43049
                  }
                }
              }
              JOINT lIndex1
              {
                OFFSET 7.75947 0.938293 5.60832
                CHANNELS 3 Zrotation Xrotation Yrotation
                JOINT lIndex2
                {
                  OFFSET 2.54057 -0.884171 1.56538
                  CHANNELS 3 Zrotation Xrotation Yrotation
                  End Site
                  {
                    OFFSET 1.62519 -0.234802 1.16502
                  }
                }
              }
              JOINT lMid1
              {
                OFFSET 8.24714 1.18213 3.41376
                CHANNELS 3 Zrotation Xrotation Yrotation
                JOINT lMid2
                {
                  OFFSET 3.10165 -0.590103 1.0647
                  CHANNELS 3 Zrotation Xrotation Yrotation
                  End Site
                  {
                    OFFSET 2.48547 -0.328903 0.83742
                  }
                }
              }
              JOINT lRing1
              {
                OFFSET 8.82822 0.546677 1.51678
                CHANNELS 3 Zrotation Xrotation Yrotation
                JOINT lRing2
                {
                  OFFSET 2.60934 -0.819778 -0.0198488
                  CHANNELS 3 Zrotation Xrotation Yrotation
                  End Site
                  {
                    OFFSET 2.33842 -0.294052 0.168128
                  }
                }
              }
              JOINT lPinky1
              {
                OFFSET 8.27202 -0.0477905 -0.4584
                CHANNELS 3 Zrotation Xrotation Yrotation
                JOINT lPinky2
                {
                  OFFSET 1.82734 -0.647385 -0.700984
                  CHANNELS 3 Zrotation Xrotation Yrotation
                  End Site
                  {
                    OFFSET 1.69225 -0.51767 -0.607171
                  }
                }
              }
            }
          }
        }
      }
    }
  }
  JOINT rButtock
  {
    OFFSET -8.77824 4.35084 1.2192
    CHANNELS 3 Zrotation Xrotation Yrotation
    JOINT rThigh
    {
      OFFSET 0 -1.70687 -2.19456
      CHANNELS 3 Zrotation Xrotation Yrotation
      JOINT rShin
      {
        OFFSET 0 -36.8199 0.73152
        CHANNELS 3 Zrotation Xrotation Yrotation
        JOINT rFoot
        {
          OFFSET 0.73152 -45.1104 -5.12064
          CHANNELS 3 Zrotation Xrotation Yrotation
          End Site
          {
            OFFSET -1.1221 -3.69964 12.103
          }
        }
      }
    }
  }
  JOINT lButtock
  {
    OFFSET 8.77824 4.35084 1.2192
    CHANNELS 3 Zrotation Xrotation Yrotation
    JOINT lThigh
    {
      OFFSET 0 -1.70687 -2.19456
      CHANNELS 3 Zrotation Xrotation Yrotation
      JOINT lShin
      {
        OFFSET 0 -36.8199 0.73152
        CHANNELS 3 Zrotation Xrotation Yrotation
        JOINT lFoot
        {
          OFFSET -0.73152 -45.1104 -5.12064
          CHANNELS 3 Zrotation Xrotation Yrotation
          End Site
          {
            OFFSET 1.1221 -3.69964 12.103
          }
        }
      }
    }
  }
}
MOTION
Frames:	4
Frame Time:	0.03333
0.0 0.0 0.0 0.0 0.0 0.0 0.0 0.0 0.0 0.0 0.0 0.0 0.0 0.0 0.0 0.0 0.0 0.0 0.0 0.0 0.0 0.0 0.0 0.0 0.0 0.0 0.0 0.0 0.0 0.0 0.0 0.0 0.0 0.0 0.0 0.0 0.0 0.0 0.0 0.0 0.0 0.0 0.0 0.0 0.0 0.0 0.0 0.0 0.0 0.0 0.0 0.0 0.0 0.0 0.0 0.0 0.0 0.0 0.0 0.0 0.0 0.0 0.0 0.0 0.0 0.0 0.0 0.0 0.0 0.0 0.0 0.0 0.0 0.0 0.0 0.0 0.0 0.0 0.0 0.0 0.0 0.0 0.0 0.0 0.0 0.0 0.0 0.0 0.0 0.0 0.0 0.0 0.0 0.0 0.0 0.0 0.0 0.0 0.0 0.0 0.0 0.0 0.0 0.0 0.0 0.0 0.0 0.0 0.0 0.0 0.0 0.0 0.0 0.0 0.0 0.0 0.0 0.0 0.0 0.0 0.0 0.0 0.0 0.0 0.0 0.0 0.0 0.0 0.0 0.0 0.0 0.0
-0.5581 62.902499999999996 0.6844 2.786668 -32.387854 3.13724 -14.427305 23.550178 5.308773 0.370873 -10.768711 -12.214821 11.924874 24.103898 101.974159 -29.668066 15.124565 -52.94328 -0.000587 0.0 -0.000294 -0.000587 0.0 -0.000294 -155.809624 -5.555508 162.266459 113.156759 -13.246094 136.01804 -81.715986 -32.98325 66.234221 -179.812599 -72.077165 158.345286 102.159665 -51.173305 46.987565 -171.3347 -56.100317 135.912838 -138.764529 4.487725 115.031535 4.32792 9.075059 -7.639031 -152.825755 14.792886 138.51406 -113.937284 58.968583 104.360786 -145.120344 0.310311 -179.225291 -148.091484 80.533115 162.325038 12.986028 44.344696 10.761992 -137.769796 -15.196317 -134.557795 -2.459706 -18.216357 3.669229 91.406192 -25.375127 -157.581763 83.515677 2.368269 86.797148 -43.124328 -66.514236 -29.18699 -1.842529 -1.827075 0.25459 111.638597 2.896949 -101.4393 12.94153 17.784468 -8.597892 66.828753 48.52582 -49.745244 0.219756 0.638491 -0.122143 129.271148 52.115781 -118.50448 145.120785 1.974719 179.749299 -11.433015 58.802453 1.649863 -6.228586 18.78939 -5.574503 128.327829 -30.118562 126.313552 0.001317 0.001052 0.000329 -72.287179 -61.705219 7.418334 76.7163 11.84597 -25.876594 106.82911 -61.545579 -3.46476 -0.000391 -0.000486 -0.000195 24.75874 8.797997 -87.899174 -49.425187 -5.696531 -89.159136 -76.56917 -9.92433 -164.637659
-0.7085 62.758 0.9158 3.587926 -33.051658 2.910785 -15.091917 22.524423 -0.0 1.19831 -10.627873 -5.929219 9.755365 29.874291 137.744564 -21.907763 31.741641 -86.061164 -0.003865 -0.0 0.003273 -0.003609 -0.0 0.002589 4.239099 -44.74279 -8.647581 -108.403788 -21.31162 -105.171367 -17.196885 33.351013 -128.541591 -162.744154 3.769753 142.309215 169.031199 -27.077878 86.618286 -103.122739 22.772344 45.143836 -69.68259 43.29207 57.34224 87.890664 -64.404798 40.580787 -151.476152 17.841238 137.537678 80.987935 -77.643267 52.45007 -145.119792 0.31035 -179.225215 -155.515509 0.828366 -179.331672 -85.785029 -50.53727 -84.154712 -153.302205 34.604049 -146.841097 -0.054646 -0.328834 0.072845 -78.08045 15.719812 -37.202031 -164.479989 -10.055394 -53.945455 -179.967766 1.766207 -143.704295 172.67115 -10.349481 -89.931942 5.581334 -51.513336 -5.667668 140.684636 1.505391 -116.182333 157.196324 -2.89805 -118.430991 -9.415941 -29.555484 3.21141 179.358036 -47.900499 -141.652282 -0.00046 0.063745 -0.020232 -5.845627 35.121942 -5.936415 -12.987893 44.344292 -10.762881 148.655711 13.368297 143.747398 179.999624 75.750805 0.000388 154.222744 -6.81575 -180.0 81.248333 -83.790431 117.836578 -61.554838 29.714855 169.603756 -0.0 -0.001163 -9.6e-05 21.042542 11.287081 49.408837 36.154438 31.13665 110.082838 108.334543 62.914402 148.402637
-0.7131000000000001 62.5936 1.1785999999999999 4.38563 -33.657558 2.90661 -16.069706 21.305602 -0.0 1.230719 -10.499998 -4.982955 3.102631 13.944233 22.468031 -8.583903 -19.401846 23.064714 -0.002015 -0.0 0.002377 -0.000809 0.0 -0.003167 -149.637314 23.301395 154.671317 -101.587339 12.645408 78.294089 9.537354 -36.446989 -135.773184 -152.254686 25.74712 132.069904 -171.705882 -9.388496 89.948922 -77.80734 5.734015 25.835456 37.218075 -57.91704 -0.640371 -171.368502 -35.894111 110.222335 -36.036328 51.722824 29.832946 -11.292188 33.417209 9.196282 0.005333 0.876184 0.277068 -78.335713 78.782087 91.680099 -86.001439 -50.497359 -84.370646 -158.925379 52.765861 -148.308811 -2.232431 -16.143901 3.279582 -87.110044 -0.549354 -14.685597 14.702112 31.859913 -104.368655 3.945729 -3.745274 2.185696 173.770482 -11.440045 -89.891232 151.598042 5.038976 -79.415601 69.681899 43.292798 -57.342325 -87.890896 -64.403919 -40.581167 153.320397 13.629054 -138.862861 5.95926 23.218372 -5.424561 72.756756 -72.144924 89.771403 58.36046 -82.272201 84.265358 25.133717 -37.773806 24.202946 158.229384 52.580566 149.473386 -179.999901 75.751038 -0.0 154.264543 -5.718259 -3.295041 -11.648553 76.130948 55.165094 -70.727414 11.866823 16.904451 179.805132 75.749993 0.150194 -91.031701 70.160855 -88.49259 -0.644789 35.112267 66.699301 89.993334 -42.407746 -4.082286
